<svg xmlns="http://www.w3.org/2000/svg" version="1.1" xmlns:xlink="http://www.w3.org/1999/xlink" xmlns:svgjs="http://svgjs.dev/svgjs" width="2000" height="429" viewBox="0 0 2000 429"><g transform="matrix(1,0,0,1,-1.2121212121212466,0.2748278893147642)"><svg viewBox="0 0 396 85" data-background-color="#dee5ed" preserveAspectRatio="xMidYMid meet" height="429" width="2000" xmlns="http://www.w3.org/2000/svg" xmlns:xlink="http://www.w3.org/1999/xlink"><g id="tight-bounds" transform="matrix(1,0,0,1,0.2400000000000091,-0.05445307830245838)"><svg viewBox="0 0 395.52 85.10890615660489" height="85.10890615660489" width="395.52"><g><svg viewBox="0 0 395.52 85.10890615660489" height="85.10890615660489" width="395.52"><g><svg viewBox="0 0 395.52 85.10890615660489" height="85.10890615660489" width="395.52"><g id="textblocktransform"><svg viewBox="0 0 395.52 85.10890615660489" height="85.10890615660489" width="395.52" id="textblock"><g><svg viewBox="0 0 395.52 85.10890615660489" height="85.10890615660489" width="395.52"><g transform="matrix(1,0,0,1,0,0)"><svg width="395.52" viewBox="0.9 -35.5 167.29 36" height="85.10890615660489" data-palette-color="#6b7688"><g class="wordmark-text-0" data-fill-palette-color="primary" id="text-0"><path d="M5.85 0L5.85-1.5 24.25-1.5 13.65-30.65 2.5 0 0.9 0 13.65-35.05 26.4 0 5.85 0ZM33.15 0L33.15-1.5 51.55-1.5 40.95-30.65 29.8 0 28.2 0 40.95-35.05 53.7 0 33.15 0ZM61.24-33.5L61.24-35 81.5-35 69-15 69 0 67.5 0 67.5-15 54.99-35 56.74-35 68.25-16.65 78.8-33.5 61.24-33.5ZM90.54-33.5L90.54-35 109.69-35 109.69-15.05Q109.69-7.05 106.94-3.28 104.19 0.5 98.04 0.5 91.89 0.5 89.14-3.28 86.39-7.05 86.39-15.05L86.39-15.05 86.39-35 87.89-35 87.89-15.05Q87.89-10.9 88.59-8.08 89.29-5.25 90.69-3.75 92.09-2.25 93.84-1.63 95.59-1 98.04-1 100.49-1 102.24-1.63 103.99-2.25 105.39-3.75 106.79-5.25 107.49-8.08 108.19-10.9 108.19-15.05L108.19-15.05 108.19-33.5 90.54-33.5ZM118.09-26.35L118.09-26.35Q118.09-31.2 120.54-33.35 122.99-35.5 128.49-35.5L128.49-35.5Q132.34-35.5 134.69-33.5 137.04-31.5 138.09-27.4L138.09-27.4 133.44-23.9 130.99-23.9 136.39-27.95Q135.34-31.3 133.37-32.65 131.39-34 128.49-34L128.49-34Q126.49-34 125.11-33.75 123.74-33.5 122.36-32.77 120.99-32.05 120.29-30.45 119.59-28.85 119.59-26.35L119.59-26.35Q119.59-24.15 121.61-22.45 123.64-20.75 126.54-19.55 129.44-18.35 132.37-17.1 135.29-15.85 137.31-13.9 139.34-11.95 139.34-9.4L139.34-9.4Q139.34-4.4 136.87-1.95 134.39 0.5 128.39 0.5L128.39 0.5Q123.49 0.5 120.69-1.48 117.89-3.45 116.84-7.6L116.84-7.6 118.24-8.2Q119.24-4.15 121.66-2.58 124.09-1 128.39-1L128.39-1Q133.19-1 135.51-2.85 137.84-4.7 137.84-9.4L137.84-9.4Q137.84-11.6 135.81-13.3 133.79-15 130.87-16.2 127.94-17.4 125.04-18.65 122.14-19.9 120.11-21.85 118.09-23.8 118.09-26.35ZM168.19-35L168.19 0 166.69 0 166.69-17.5 148.69-17.5 148.69 0 147.19 0 147.19-35 148.69-35 148.69-19 166.69-19 166.69-35 168.19-35Z" fill="#030303" data-fill-palette-color="primary"></path></g></svg></g></svg></g></svg></g></svg></g><g></g></svg></g><defs></defs></svg><rect width="395.52" height="85.10890615660489" fill="none" stroke="none" visibility="hidden"></rect></g></svg></g></svg>